<svg xmlns="http://www.w3.org/2000/svg" xmlns:xlink="http://www.w3.org/1999/xlink" viewBox="0 0 544 362"><defs><style>.cls-1{fill:none;}.cls-2{fill:#fff;}.cls-3{clip-path:url(#clip-path);}.cls-4{fill:url(#linear-gradient);}</style><clipPath id="clip-path"><path class="cls-1" d="M191,149.8c-5.5,10.62-10.74,21.4-16.06,32.12-5.56,11.24-11.53,22.33-8.53,35.4,3.84,16.74,19.84,22.15,19.84,22.15,5.48,2,11.41,1.91,17.2,1.83,1.38,0,2.75,0,4.1,0,9.5.07,19,0,28.52.06,5.54,0,11.09.06,16.63.06,16.18,0,17-16.95,17-16.95H198.23c-11.67,0-20-9.07-15.63-20.9,6.66-17.83,15.64-32.6,26-51.79C216,138,227.38,139,227.38,139a20.64,20.64,0,0,1,8.22,1.69c7.86,3.33,12.15,14.11,16.2,22.14,9.88,19.55,15.7,31.08,23.93,46.4,8.93,16.61,17.5,31.42,40.39,31.42,14.13,0,27.11-11.09,33.07-23l22.3-44.49c14.19-24.38,2.13-40.39,2.13-40.39-5.71-7.39-11.41-11.85-25.4-11.85H289.4a24.19,24.19,0,0,0-5.88,1.13c-10.94,3.94-11.36,15.84-11.36,15.84l73.12.05c5.1,0,9.75.25,13.37,4.06,4.75,5,4.79,11.71,2,17.09L336,207.42c-9.84,18.05-20.31,15.38-20.31,15.38-13.12,1-21.57-15.78-21.57-15.78-1.63-3.18-3.24-6.35-4.86-9.52-6.17-12.05-12.36-24.09-18.47-36.17-9.54-18.88-18.67-40.72-43.37-40.72-17.83,0-28.9,14.72-36.38,29.19"/></clipPath><linearGradient id="linear-gradient" x1="-25.17" y1="596.87" x2="-22.05" y2="596.87" gradientTransform="matrix(68.1, 0, 0, -68.1, 1880.04, 40826.42)" gradientUnits="userSpaceOnUse"><stop offset="0" stop-color="#f47d62"/><stop offset="0.26" stop-color="#f48064"/><stop offset="0.43" stop-color="#f58869"/><stop offset="0.5" stop-color="#f68f6d"/><stop offset="0.53" stop-color="#f58a6d"/><stop offset="0.66" stop-color="#f37a6d"/><stop offset="0.81" stop-color="#f2706d"/><stop offset="1" stop-color="#f26d6d"/></linearGradient></defs><title>auroville_consulting_1</title><g id="Layer_2" data-name="Layer 2"><g id="Layer_1-2" data-name="Layer 1"><rect class="cls-2" width="544" height="362"/><image width="1920" height="1080" transform="scale(0.28 0.34)" xlink:href="D:\Work\auroville\AVR FILES\1x\Artboard 1.png"/><g class="cls-3"><rect class="cls-4" x="163.41" y="120.61" width="222.27" height="120.85"/></g></g></g></svg>